<svg viewBox="0 0 160 160" version="1.1" id="svg_null"><g id="root" stroke="none" stroke-width="1" fill="none" fill-rule="evenodd"><rect id="background.accent" fill="#c1eaf2" x="0" y="0" width="160" height="160"></rect><polygon id="shape.primary" fill="#191ba9" fill-rule="nonzero" points="18 98 18 50 142 50 142 98 96 98 96 100 144 100 144 48 16 48 16 100 64 100 64 98"></polygon><g id="group" transform="translate(28.000000, 61.000000)"><rect id="Rectangle-14" x="0" y="0" width="104" height="22"></rect><text id="headerText.primary" font-family="Asap Condensed" font-size="16.104610388289167" font-weight="500" letter-spacing="NaN" fill="#191ba9" data-text-alignment="C" font-style="normal"><tspan x="5.069999694824219" y="16">Baldugamyba.lt</tspan></text></g><rect id="icon.primary" x="68" y="87" width="24" height="24" display="none" fill="#191ba9"></rect><svg xmlns="http://www.w3.org/2000/svg" xmlns:xlink="http://www.w3.org/1999/xlink" viewBox="0 0 50 50" version="1.1" fill="#191ba9" id="svg_icon.primary" x="68" y="87" width="24" height="24"><g id="surface1"><path style=" " d="M 10.59375 11 L 10.28125 11.28125 L 0.53125 21.0625 C 0.5 21.082031 0.46875 21.101563 0.4375 21.125 C 0.246094 21.230469 0.0898438 21.394531 0 21.59375 C -0.113281 21.851563 -0.113281 22.148438 0 22.40625 L 0 28 L 3 28 L 3 50 L 9 50 L 9 28 L 11 28 L 11 43 L 17 43 L 17 28 L 33 28 L 33 43 L 39 43 L 39 28 L 41 28 L 41 50 L 47 50 L 47 28 L 50 28 L 50 22.1875 C 50.007813 22.125 50.007813 22.0625 50 22 L 50 21.875 C 50 21.84375 50 21.8125 50 21.78125 L 50 21.59375 L 49.84375 21.4375 C 49.835938 21.417969 49.824219 21.394531 49.8125 21.375 L 49.78125 21.34375 C 49.761719 21.320313 49.742188 21.300781 49.71875 21.28125 L 49.6875 21.28125 C 49.667969 21.257813 49.648438 21.238281 49.625 21.21875 L 39.71875 11.28125 L 39.40625 11 Z M 11.4375 13 L 38.5625 13 L 46.5625 21 L 3.4375 21 Z M 2 23 L 48 23 L 48 26 L 42.21875 26 C 42.117188 25.972656 42.011719 25.960938 41.90625 25.96875 C 41.875 25.976563 41.84375 25.988281 41.8125 26 L 34.21875 26 C 34.117188 25.972656 34.011719 25.960938 33.90625 25.96875 C 33.875 25.976563 33.84375 25.988281 33.8125 26 L 12.1875 26 C 12.054688 25.972656 11.914063 25.972656 11.78125 26 L 4.1875 26 C 4.054688 25.972656 3.914063 25.972656 3.78125 26 L 2 26 Z M 5 28 L 7 28 L 7 48 L 5 48 Z M 13 28 L 15 28 L 15 41 L 13 41 Z M 35 28 L 37 28 L 37 41 L 35 41 Z M 43 28 L 45 28 L 45 48 L 43 48 Z "></path></g></svg></g></svg>
